<?xml version="1.0" encoding="UTF-8"?>
<svg xmlns="http://www.w3.org/2000/svg" xmlns:xlink="http://www.w3.org/1999/xlink" width="180px" height="px" viewBox="0 0 180 208" version="1.1">
<defs>
<filter id="alpha" filterUnits="objectBoundingBox" x="0%" y="0%" width="100%" height="100%">
  <feColorMatrix type="matrix" in="SourceGraphic" values="0 0 0 0 1 0 0 0 0 1 0 0 0 0 1 0 0 0 1 0"/>
</filter>
<mask id="mask0">
  <g filter="url(#alpha)">
<rect x="0" y="0" width="180" height="208" style="fill:rgb(0%,0%,0%);fill-opacity:0.301961;stroke:none;"/>
  </g>
</mask>
<clipPath id="clip1">
  <rect x="0" y="0" width="180" height="208"/>
</clipPath>
<g id="surface5" clip-path="url(#clip1)">
<path style=" stroke:none;fill-rule:nonzero;fill:rgb(0.392157%,0.392157%,0.392157%);fill-opacity:1;" d="M 132.378906 190.015625 C 134.359375 190.945312 137.269531 191.640625 139.484375 191.640625 C 139.484375 191.640625 138.667969 195.472656 139.949219 197.792969 C 141.226562 200.117188 130.632812 198.722656 130.632812 198.722656 L 130.167969 190.480469 Z M 163.234375 200 C 165.097656 199.417969 166.378906 197.328125 164.863281 195.355469 C 163.234375 193.382812 161.835938 193.035156 163.933594 192.917969 C 166.027344 192.804688 173.710938 197.445312 173.710938 197.445312 L 169.753906 201.042969 Z M 128.070312 158.675781 C 130.75 159.601562 134.824219 159.835938 138.316406 159.71875 C 141.8125 159.601562 147.050781 159.136719 150.425781 157.976562 C 153.804688 156.816406 152.40625 159.253906 152.40625 159.253906 L 150.542969 160.996094 C 150.542969 160.996094 146.117188 162.738281 138.902344 162.621094 C 130.402344 162.503906 127.839844 161.578125 127.839844 161.578125 Z M 128.304688 164.480469 C 130.984375 165.40625 135.058594 165.640625 138.550781 165.523438 C 142.042969 165.40625 146.699219 165.40625 150.078125 164.128906 C 151.472656 163.667969 150.660156 165.640625 150.660156 165.640625 L 150.078125 166.683594 C 150.078125 166.683594 145.535156 168.308594 138.433594 168.191406 C 129.933594 168.078125 128.421875 167.378906 128.421875 167.378906 Z M 128.304688 164.480469 "/>
</g>
<mask id="mask1">
  <g filter="url(#alpha)">
<rect x="0" y="0" width="180" height="208" style="fill:rgb(0%,0%,0%);fill-opacity:0.4;stroke:none;"/>
  </g>
</mask>
<clipPath id="clip2">
  <rect x="0" y="0" width="180" height="208"/>
</clipPath>
<g id="surface8" clip-path="url(#clip2)">
<path style=" stroke:none;fill-rule:nonzero;fill:rgb(0.392157%,0.392157%,0.392157%);fill-opacity:1;" d="M 79.988281 62.441406 C 69.507812 66.621094 42.84375 79.855469 35.277344 83.917969 C 41.566406 87.863281 44.476562 97.382812 45.40625 107.019531 C 45.523438 107.945312 45.640625 108.761719 45.757812 109.6875 C 45.871094 110.5 45.988281 111.082031 46.105469 111.429688 C 46.105469 111.546875 46.105469 111.777344 46.222656 111.894531 C 53.089844 93.203125 77.65625 73.472656 78.589844 71.960938 C 79.054688 71.265625 78.007812 68.246094 79.636719 65.347656 C 81.734375 61.628906 85.808594 60.003906 79.988281 62.441406 Z M 104.902344 150.085938 C 110.257812 139.40625 110.375 129.191406 110.257812 117.234375 C 110.257812 112.242188 113.867188 105.160156 112.003906 107.132812 C 105.019531 114.910156 87.4375 129.539062 74.746094 130.351562 C 92.5625 129.769531 99.546875 138.707031 104.902344 150.085938 Z M 104.902344 150.085938 "/>
</g>
<mask id="mask2">
  <g filter="url(#alpha)">
<rect x="0" y="0" width="180" height="208" style="fill:rgb(0%,0%,0%);fill-opacity:0.4;stroke:none;"/>
  </g>
</mask>
<clipPath id="clip3">
  <rect x="0" y="0" width="180" height="208"/>
</clipPath>
<g id="surface11" clip-path="url(#clip3)">
<path style=" stroke:none;fill-rule:nonzero;fill:rgb(0.392157%,0.392157%,0.392157%);fill-opacity:1;" d="M 122.832031 60.238281 C 120.15625 59.191406 118.058594 62.328125 118.757812 65.34375 C 119.457031 68.363281 125.742188 71.730469 125.394531 82.757812 C 125.160156 91.8125 123.183594 95.527344 123.183594 95.527344 L 118.757812 89.953125 C 118.757812 89.953125 118.058594 77.417969 116.546875 75.558594 C 115.03125 73.703125 110.257812 70.335938 108.394531 68.59375 C 106.53125 66.855469 110.492188 64.53125 110.257812 61.28125 C 110.027344 58.148438 112.238281 51.878906 112.238281 51.878906 Z M 139.015625 109.6875 C 138.785156 118.394531 140.761719 131.277344 141.578125 137.429688 C 142.394531 143.582031 143.441406 144.046875 141.578125 146.835938 C 139.714844 149.503906 137.269531 153.914062 137.269531 153.914062 L 129.238281 153.21875 C 129.238281 153.21875 135.640625 145.09375 135.988281 143.582031 C 136.339844 142.074219 132.730469 130.582031 132.730469 130.582031 Z M 123.53125 28.429688 C 125.160156 32.027344 127.140625 33.652344 130.285156 34.699219 C 132.148438 35.394531 139.480469 36.324219 142.394531 33.074219 C 143.671875 31.566406 142.859375 27.5 142.859375 27.5 L 136.222656 32.839844 L 127.257812 31.214844 L 126.210938 28.546875 Z M 123.53125 28.429688 "/>
</g>
<mask id="mask3">
  <g filter="url(#alpha)">
<rect x="0" y="0" width="180" height="208" style="fill:rgb(0%,0%,0%);fill-opacity:0.4;stroke:none;"/>
  </g>
</mask>
<clipPath id="clip4">
  <rect x="0" y="0" width="180" height="208"/>
</clipPath>
<g id="surface14" clip-path="url(#clip4)">
<path style=" stroke:none;fill-rule:nonzero;fill:rgb(0.392157%,0.392157%,0.392157%);fill-opacity:1;" d="M 159.160156 70.570312 C 159.507812 72.308594 160.441406 75.675781 162.300781 77.300781 C 163.117188 78.113281 163.234375 78.34375 162.535156 78.34375 C 161.835938 78.34375 156.714844 78.113281 156.714844 78.113281 L 155.316406 75.675781 Z M 159.160156 70.570312 "/>
</g>
</defs>
<g id="surface1">
<path style=" stroke:none;fill-rule:nonzero;fill:rgb(0.392157%,0.392157%,0.392157%);fill-opacity:1;" d="M 28.757812 91.578125 C 22.820312 94.363281 7.101562 106.902344 4.074219 110.617188 C 0.929688 114.332031 0 108.527344 3.261719 98.890625 C 5.820312 91.113281 12.339844 80.550781 23.285156 71.496094 C 29.6875 66.273438 43.777344 58.730469 52.394531 54.316406 C 54.140625 53.386719 76.726562 43.871094 96.867188 39.109375 C 98.617188 38.644531 94.773438 42.011719 94.191406 43.871094 C 91.164062 52.691406 30.738281 90.535156 30.738281 90.535156 Z M 113.867188 198.027344 C 114.914062 204.292969 113.984375 204.757812 107.464844 205.570312 C 100.945312 206.382812 96.171875 203.945312 94.425781 202.320312 C 92.675781 200.695312 92.328125 197.097656 94.074219 193.847656 C 95.125 191.757812 96.171875 191.0625 96.753906 188.507812 C 97.335938 186.070312 97.800781 185.488281 98.265625 184.5625 C 98.730469 183.746094 98.847656 182.933594 98.964844 177.246094 C 99.082031 171.558594 98.964844 160.878906 99.546875 156.351562 C 100.128906 151.710938 120.273438 158.441406 120.273438 158.441406 C 120.273438 158.441406 115.5 170.28125 114.21875 173.183594 C 112.9375 176.085938 113.054688 181.660156 113.054688 182.820312 C 113.054688 183.980469 112.589844 186.300781 112.238281 186.417969 C 111.890625 186.535156 113.402344 189.550781 112.703125 191.292969 C 112.238281 192.917969 113.75 197.097656 113.867188 198.027344 Z M 121.550781 20.539062 C 120.851562 16.125 121.550781 7.417969 122.484375 6.027344 C 125.394531 2.078125 140.761719 1.617188 144.023438 6.257812 C 145.421875 8.347656 145.304688 13.222656 145.070312 16.359375 C 144.839844 19.492188 144.023438 26.226562 143.90625 28.429688 C 143.789062 30.054688 126.910156 32.609375 123.183594 28.199219 C 122.132812 27.039062 121.550781 20.539062 121.550781 20.539062 Z M 155.78125 186.765625 C 162.886719 191.875 168.355469 192.800781 171.964844 194.660156 C 175.574219 196.515625 174.644531 200.117188 168.589844 201.160156 C 163.699219 202.089844 156.015625 200.230469 150.890625 200.230469 C 145.769531 200.230469 134.359375 200.8125 131.332031 198.722656 C 127.839844 196.285156 129.351562 191.757812 129.351562 191.757812 C 130.285156 189.203125 132.613281 183.515625 131.914062 178.871094 C 131.214844 174.230469 130.285156 171.675781 128.539062 167.378906 C 126.792969 163.085938 125.511719 152.523438 127.140625 151.941406 C 128.769531 151.359375 128.304688 151.941406 130.402344 152.40625 C 132.496094 152.871094 134.824219 153.566406 139.367188 153.566406 C 143.90625 153.566406 148.914062 152.871094 150.660156 152.523438 C 152.40625 152.175781 153.804688 151.824219 153.21875 155.425781 C 152.640625 159.023438 150.890625 165.753906 150.777344 170.980469 C 150.660156 176.203125 150.660156 182.238281 151.007812 183.285156 C 151.359375 184.328125 153.917969 185.488281 155.78125 186.765625 Z M 155.78125 186.765625 "/>
<path style=" stroke:none;fill-rule:nonzero;fill:rgb(54.117647%,77.647059%,25.098039%);fill-opacity:1;" d="M 130.867188 32.144531 C 118.058594 43.171875 93.261719 46.191406 56.46875 60.351562 C 47.039062 63.953125 21.890625 74.746094 15.835938 86.007812 C 36.210938 74.285156 43.777344 90.417969 45.40625 107.019531 C 46.921875 122.574219 54.722656 130.699219 74.746094 130.234375 C 95.355469 129.769531 101.644531 141.726562 107.347656 155.773438 C 118.410156 102.027344 136.105469 91.578125 147.515625 82.410156 C 171.734375 62.789062 141.925781 28.199219 130.867188 32.144531 Z M 130.867188 32.144531 "/>
<path style=" stroke:none;fill-rule:nonzero;fill:rgb(54.117647%,77.647059%,25.098039%);fill-opacity:1;" d="M 130.867188 32.144531 C 100.128906 42.824219 69.742188 45.496094 33.996094 67.433594 C 25.5 72.65625 7.566406 84.496094 4.074219 107.132812 C 17.113281 92.738281 47.269531 74.632812 84.179688 63.140625 C 102.808594 57.335938 116.429688 53.503906 132.960938 47.121094 C 131.796875 39.691406 131.796875 36.789062 130.867188 32.144531 Z M 130.867188 32.144531 "/>
<path style=" stroke:none;fill-rule:nonzero;fill:rgb(0.392157%,0.392157%,0.392157%);fill-opacity:1;" d="M 170.101562 95.757812 C 170.101562 95.757812 167.890625 103.304688 163.464844 105.742188 C 163.464844 105.742188 160.207031 106.902344 153.6875 103.304688 C 151.824219 102.257812 150.425781 98.660156 150.542969 97.5 C 150.660156 94.714844 152.40625 93.4375 152.40625 93.4375 C 152.40625 93.4375 154.269531 90.300781 156.480469 90.417969 C 158.695312 90.535156 162.417969 90.882812 163.582031 89.839844 C 164.632812 88.675781 170.335938 91.925781 170.101562 95.757812 Z M 122.601562 22.742188 C 122.601562 22.742188 122.136719 28.664062 121.320312 32.378906 C 121.203125 33.074219 117.710938 33.421875 115.148438 34.46875 C 120.039062 48.398438 149.496094 48.28125 153.335938 41.433594 C 151.476562 40.15625 147.75 38.183594 146.003906 37.484375 C 144.257812 36.789062 144.371094 36.90625 144.257812 33.65625 C 144.140625 30.402344 143.90625 24.367188 143.671875 22.742188 C 143.441406 21.117188 125.394531 21.117188 122.601562 22.742188 Z M 122.601562 22.742188 "/>
<path style=" stroke:none;fill-rule:nonzero;fill:rgb(94.117647%,93.72549%,93.72549%);fill-opacity:1;" d="M 123.765625 22.742188 C 123.765625 22.742188 123.765625 26.109375 123.414062 29.359375 C 123.300781 30.867188 123.183594 31.796875 122.949219 32.957031 C 122.832031 33.65625 126.910156 36.441406 128.074219 42.59375 C 133.660156 55.011719 146.585938 48.859375 151.941406 42.941406 C 150.078125 41.664062 147.050781 39.921875 143.558594 38.53125 C 141.8125 37.832031 142.625 36.324219 142.511719 33.074219 C 142.394531 29.824219 141.929688 25.0625 141.695312 23.324219 C 141.460938 21.582031 126.558594 21.117188 123.765625 22.742188 Z M 123.765625 22.742188 "/>
<path style=" stroke:none;fill-rule:nonzero;fill:rgb(0.392157%,0.392157%,0.392157%);fill-opacity:1;" d="M 122.601562 22.742188 C 122.601562 22.742188 122.484375 24.832031 122.136719 27.269531 C 123.648438 28.777344 125.628906 30.867188 127.140625 32.144531 C 128.1875 33.074219 130.75 32.957031 133.078125 32.957031 C 135.175781 32.957031 137.039062 33.191406 137.851562 32.726562 C 139.714844 31.796875 142.394531 29.476562 143.90625 27.734375 C 143.792969 25.644531 143.675781 23.671875 143.558594 22.742188 C 143.441406 21.117188 125.394531 21.117188 122.601562 22.742188 Z M 122.601562 22.742188 "/>
<path style=" stroke:none;fill-rule:nonzero;fill:rgb(0.392157%,0.392157%,0.392157%);fill-opacity:1;" d="M 133.195312 31.566406 C 131.796875 31.566406 130.167969 31.449219 128.886719 31.214844 C 128.304688 31.101562 127.722656 30.753906 127.257812 30.519531 C 126.441406 29.9375 125.625 29.242188 124.695312 28.546875 C 122.832031 27.152344 122.714844 26.339844 122.714844 25.992188 C 123.53125 18.679688 122.484375 12.527344 122.484375 12.527344 C 122.484375 12.527344 121.667969 9.394531 126.09375 8.582031 C 130.515625 7.769531 133.195312 7.652344 133.195312 7.652344 C 133.195312 7.652344 135.988281 7.652344 140.296875 8.582031 C 144.722656 9.394531 143.90625 12.527344 143.90625 12.527344 C 143.90625 12.527344 142.859375 18.679688 143.671875 25.992188 C 143.671875 26.339844 143.558594 27.152344 141.695312 28.546875 C 140.0625 29.707031 138.785156 30.984375 137.503906 31.214844 C 136.222656 31.449219 134.59375 31.566406 133.195312 31.566406 Z M 133.195312 31.566406 "/>
<path style=" stroke:none;fill-rule:nonzero;fill:rgb(0.392157%,0.392157%,0.392157%);fill-opacity:1;" d="M 133.195312 4.632812 C 125.511719 4.632812 123.996094 6.722656 121.785156 9.046875 C 121.320312 9.625 121.667969 13.109375 122.484375 20.539062 L 123.53125 20.539062 C 123.53125 20.539062 122.832031 18.449219 122.949219 16.011719 C 123.066406 13.574219 123.53125 13.6875 123.183594 13.109375 C 122.714844 12.410156 121.785156 11.25 123.882812 10.089844 C 125.976562 8.929688 129.238281 11.019531 133.195312 11.132812 C 137.152344 11.019531 140.53125 8.929688 142.625 10.089844 C 144.722656 11.25 143.789062 12.410156 143.324219 13.109375 C 142.859375 13.804688 143.441406 13.570312 143.558594 16.011719 C 143.671875 18.449219 142.976562 20.539062 142.976562 20.539062 L 144.023438 20.539062 C 144.722656 13.109375 145.1875 9.859375 144.839844 9.277344 C 142.859375 6.722656 140.878906 4.75 133.195312 4.632812 Z M 170.101562 96.105469 C 170.101562 96.105469 167.890625 103.1875 163.582031 105.625 C 162.652344 105.160156 162.769531 104.464844 161.953125 103.417969 C 161.71875 103.070312 160.90625 102.839844 160.554688 102.492188 C 160.207031 102.144531 160.324219 101.5625 159.742188 101.097656 C 159.273438 100.632812 158.925781 100.980469 158.460938 100.632812 C 157.996094 100.167969 157.878906 99.589844 157.527344 99.242188 C 157.296875 99.007812 156.363281 98.894531 156.132812 98.660156 C 155.550781 98.078125 150.425781 97.035156 150.660156 95.875 C 151.125 94.132812 152.058594 92.855469 152.058594 92.855469 C 152.058594 92.855469 154.269531 89.605469 156.480469 89.722656 C 158.691406 89.839844 160.789062 90.300781 161.953125 89.257812 C 163.234375 88.097656 170.453125 92.390625 170.101562 96.105469 Z M 170.101562 96.105469 "/>
<path style=" stroke:none;fill-rule:nonzero;fill:rgb(0.392157%,0.392157%,0.392157%);fill-opacity:1;" d="M 154.96875 44.796875 C 154.96875 44.796875 162.300781 43.058594 167.308594 47.816406 C 172.316406 52.691406 171.964844 58.726562 170.453125 62.441406 C 171.734375 63.953125 174.0625 68.128906 172.316406 73.121094 C 180 79.621094 176.625 89.605469 169.753906 96.222656 C 169.753906 96.222656 168.125 90.1875 161.605469 89.839844 C 161.835938 87.515625 155.550781 85.660156 158.460938 79.621094 C 154.035156 78.578125 154.152344 75.558594 153.453125 71.84375 C 152.871094 68.128906 154.96875 44.796875 154.96875 44.796875 Z M 154.96875 44.796875 "/>
<path style=" stroke:none;fill-rule:nonzero;fill:rgb(94.117647%,93.72549%,93.72549%);fill-opacity:1;" d="M 152.289062 48.046875 C 152.289062 48.046875 160.789062 43.753906 165.796875 48.628906 C 170.800781 53.503906 169.402344 58.84375 167.890625 62.558594 C 169.171875 64.066406 172.199219 68.363281 170.335938 73.46875 C 169.988281 74.632812 167.425781 74.632812 165.5625 77.648438 C 170.21875 74.980469 173.128906 75.675781 174.175781 79.042969 C 175.808594 84.265625 172.199219 90.535156 169.054688 94.015625 C 169.054688 93.898438 168.9375 93.785156 168.9375 93.667969 C 168.472656 95.410156 167.890625 98.777344 164.398438 102.492188 C 162.652344 104.347656 161.253906 104.117188 159.273438 103.652344 C 156.945312 103.070312 156.132812 102.023438 152.871094 100.285156 C 151.007812 99.238281 152.054688 97.964844 152.054688 96.917969 C 152.054688 96.6875 152.289062 96.335938 152.640625 95.875 C 152.871094 95.292969 153.570312 94.363281 154.617188 93.320312 C 154.617188 93.320312 156.132812 91.230469 158.34375 91.347656 C 160.554688 91.460938 162.882812 91 163.464844 90.417969 C 163.464844 86.355469 158.808594 86.238281 160.441406 79.273438 C 160.554688 78.925781 161.136719 78.34375 163 78.113281 C 160.207031 77.53125 158.925781 77.417969 156.945312 75.558594 C 155.550781 74.28125 154.5 72.65625 154.152344 70.570312 C 153.453125 66.96875 152.289062 48.046875 152.289062 48.046875 Z M 152.289062 48.046875 "/>
<path style=" stroke:none;fill-rule:nonzero;fill:rgb(0.392157%,0.392157%,0.392157%);fill-opacity:1;" d="M 127.722656 40.734375 C 127.023438 39.808594 123.414062 35.164062 116.546875 33.304688 C 114.566406 32.726562 113.285156 34.351562 111.308594 35.511719 C 110.722656 35.164062 108.164062 34.003906 106.765625 34.816406 C 105.367188 35.628906 104.4375 36.441406 103.039062 37.019531 C 102.339844 36.671875 100.480469 36.671875 98.964844 37.253906 C 97.453125 37.71875 95.121094 38.761719 92.910156 41.78125 C 91.511719 46.773438 117.59375 43.054688 117.59375 43.054688 Z M 127.722656 40.734375 "/>
<path style=" stroke:none;fill-rule:nonzero;fill:rgb(54.117647%,77.647059%,25.098039%);fill-opacity:1;" d="M 127.957031 40.734375 C 124.230469 39.457031 124.8125 35.164062 116.546875 34.46875 C 114.914062 34.351562 113.867188 35.628906 112.703125 36.441406 C 113.285156 37.019531 113.867188 37.949219 114.21875 38.878906 C 113.167969 37.71875 111.304688 36.207031 109.441406 35.859375 C 107.695312 35.511719 106.53125 36.789062 104.667969 37.71875 C 105.019531 38.066406 105.367188 38.644531 105.832031 39.34375 C 104.203125 38.296875 103.039062 37.949219 100.828125 38.761719 C 99.3125 39.226562 96.402344 40.503906 94.191406 43.636719 C 92.792969 48.628906 117.710938 43.058594 117.710938 43.058594 Z M 127.957031 40.734375 "/>
<path style=" stroke:none;fill-rule:nonzero;fill:rgb(0.392157%,0.392157%,0.392157%);fill-opacity:1;" d="M 149.84375 42.59375 C 149.84375 42.59375 149.84375 41.316406 149.726562 40.15625 C 149.726562 39.921875 148.796875 39.34375 148.796875 39.109375 L 148.5625 38.878906 C 148.5625 38.878906 150.425781 37.832031 151.824219 38.414062 C 153.335938 38.878906 154.152344 40.851562 154.152344 40.851562 C 156.832031 39.921875 157.0625 40.96875 158.34375 42.359375 C 161.136719 41.78125 161.488281 42.824219 163.234375 45.378906 C 163.234375 45.378906 161.136719 45.03125 157.0625 45.726562 C 153.105469 46.308594 149.84375 42.476562 149.84375 42.59375 Z M 149.84375 42.59375 "/>
<path style=" stroke:none;fill-rule:nonzero;fill:rgb(54.117647%,77.647059%,25.098039%);fill-opacity:1;" d="M 149.378906 42.011719 C 149.378906 42.011719 150.078125 41.429688 149.84375 41.316406 C 151.125 40.617188 152.871094 39.808594 153.6875 42.011719 C 156.363281 41.082031 156.714844 42.359375 157.996094 43.753906 C 161.253906 42.246094 161.488281 44.101562 161.71875 44.914062 C 160.671875 44.914062 159.160156 45.03125 157.0625 45.261719 C 153.105469 45.84375 149.261719 41.894531 149.378906 42.011719 Z M 149.378906 42.011719 "/>
<path style=" stroke:none;fill-rule:nonzero;fill:rgb(0.392157%,0.392157%,0.392157%);fill-opacity:1;" d="M 109.792969 39.109375 C 109.792969 39.109375 116.429688 41.429688 122.019531 41.082031 C 127.605469 40.621094 137.152344 40.15625 142.277344 43.171875 C 142.277344 43.171875 147.515625 41.316406 152.40625 42.59375 C 157.296875 43.867188 166.261719 52.226562 163.582031 61.050781 C 163.351562 61.628906 161.835938 62.558594 160.089844 63.140625 C 160.089844 63.140625 161.023438 67.085938 159.390625 70.335938 C 157.761719 73.46875 154.152344 79.507812 154.035156 87.863281 C 153.921875 89.257812 153.6875 92.160156 153.453125 93.550781 C 144.371094 93.203125 130.402344 89.835938 116.664062 90.070312 C 116.777344 88.5625 116.894531 87.632812 117.011719 86.125 L 117.359375 86.125 C 116.664062 82.292969 116.429688 80.320312 115.730469 77.417969 C 111.304688 74.632812 106.648438 71.382812 102.691406 65.226562 C 98.847656 59.074219 109.792969 39.109375 109.792969 39.109375 Z M 154.734375 101.792969 C 154.734375 101.792969 161.953125 127.566406 153.453125 138.359375 C 153.453125 138.359375 154.734375 143.351562 151.824219 148.691406 C 151.359375 151.011719 150.777344 153.101562 150.425781 155.425781 C 148.914062 165.058594 146.351562 169.121094 145.652344 184.558594 L 138.667969 184.445312 C 138.667969 184.445312 137.851562 173.300781 135.40625 167.378906 C 134.011719 164.015625 128.539062 159.488281 128.769531 154.960938 C 129.003906 151.476562 129.703125 148.574219 135.640625 143.933594 C 136.105469 137.199219 129.351562 130.816406 130.402344 105.742188 Z M 154.734375 101.792969 "/>
<path style=" stroke:none;fill-rule:nonzero;fill:rgb(94.117647%,93.72549%,93.72549%);fill-opacity:1;" d="M 152.640625 100.75 C 154.503906 112.589844 158.808594 130.117188 151.007812 138.707031 C 151.46875 140.886719 151.507812 143.132812 151.125 145.324219 C 150.890625 146.71875 150.425781 148.226562 149.84375 149.851562 C 148.679688 152.636719 148.214844 156.699219 147.863281 159.136719 C 146.351562 168.773438 146.351562 169.238281 145.652344 184.675781 L 138.667969 184.558594 C 138.667969 184.558594 137.851562 173.414062 135.40625 167.496094 C 134.011719 164.128906 131.097656 161.226562 130.867188 156.699219 C 130.632812 153.21875 133.078125 146.253906 138.902344 146.484375 C 138.550781 132.441406 132.03125 135.226562 130.285156 105.972656 Z M 109.792969 39.109375 C 109.792969 39.109375 112.355469 39.921875 115.148438 40.15625 C 117.941406 40.386719 120.96875 40.15625 123.648438 40.039062 C 129.238281 39.574219 137.152344 38.992188 142.394531 42.011719 C 142.394531 42.011719 145.304688 41.082031 148.449219 41.316406 C 149.84375 41.429688 151.242188 42.59375 152.871094 43.058594 C 157.996094 44.332031 162.886719 52.808594 160.671875 60.46875 C 160.441406 61.050781 158.808594 60.46875 156.945312 61.050781 C 157.296875 62.675781 157.527344 66.390625 155.664062 70.335938 C 153.6875 74.285156 151.125 79.390625 151.589844 89.140625 C 139.367188 88.5625 133.894531 87.75 121.785156 87.167969 C 120.738281 82.875 120.039062 78.578125 119.921875 76.371094 C 121.550781 75.558594 122.480469 74.863281 123.765625 73.472656 C 120.269531 74.050781 118.875 73.820312 116.777344 72.65625 C 114.683594 71.496094 110.957031 67.78125 109.09375 65.34375 C 108.859375 65.113281 107.582031 68.941406 104.667969 69.058594 C 103.621094 67.550781 108.046875 63.253906 107.230469 61.628906 C 104.320312 55.710938 109.792969 39.109375 109.792969 39.109375 Z M 109.792969 39.109375 "/>
<path style=" stroke:none;fill-rule:nonzero;fill:rgb(0.392157%,0.392157%,0.392157%);fill-opacity:1;" d="M 153.570312 91.113281 C 153.570312 91.113281 153.800781 95.292969 153.800781 96.339844 C 153.800781 97.5 154.734375 100.980469 154.851562 102.605469 C 153.570312 104.8125 147.980469 109.804688 137.851562 111.660156 C 127.839844 113.75 114.566406 98.078125 114.566406 98.078125 C 114.914062 96.570312 116.078125 92.160156 116.894531 89.839844 C 117.011719 89.605469 117.242188 89.023438 117.242188 88.792969 C 118.292969 87.285156 153.570312 91.113281 153.570312 91.113281 Z M 153.570312 91.113281 "/>
<path style=" stroke:none;fill-rule:nonzero;fill:rgb(94.117647%,93.72549%,93.72549%);fill-opacity:1;" d="M 151.007812 91.464844 C 151.007812 94.363281 151.472656 96.453125 151.824219 98.3125 C 152.40625 101.679688 153.335938 103.882812 153.335938 106.089844 C 153.335938 112.820312 144.488281 111.660156 137.035156 111.894531 C 127.023438 113.984375 118.523438 98.3125 118.523438 98.3125 C 119.222656 95.640625 119.6875 92.625 120.738281 90.070312 C 120.851562 88.675781 121.085938 86.9375 121.203125 86.125 C 135.40625 86.125 145.417969 86.9375 151.242188 87.515625 C 151.472656 88.792969 151.242188 91 151.007812 91.464844 Z M 151.007812 91.464844 "/>
<path style=" stroke:none;fill-rule:nonzero;fill:rgb(0.392157%,0.392157%,0.392157%);fill-opacity:1;" d="M 139.832031 106.4375 C 139.832031 106.4375 133.660156 92.738281 115.148438 96.804688 C 110.722656 109.222656 104.785156 123.503906 108.628906 138.941406 C 104.785156 144.164062 100.363281 147.066406 100.363281 156.703125 C 100.363281 166.335938 100.828125 167.960938 100.828125 167.960938 L 114.449219 168.660156 C 114.449219 168.660156 118.875 162.96875 120.621094 156.816406 C 121.085938 155.078125 121.550781 151.941406 121.203125 148.34375 C 121.667969 147.648438 123.648438 146.023438 123.878906 142.886719 C 123.878906 142.886719 130.515625 139.40625 134.359375 130.933594 C 137.96875 123.269531 137.039062 116.652344 139.832031 106.4375 Z M 139.832031 106.4375 "/>
<path style=" stroke:none;fill-rule:nonzero;fill:rgb(94.117647%,93.72549%,93.72549%);fill-opacity:1;" d="M 139.832031 106.4375 C 139.484375 105.160156 134.824219 92.625 117.59375 96.339844 C 107.464844 123.269531 111.191406 134.414062 112.703125 139.289062 C 105.832031 147.996094 102.691406 149.851562 104.089844 167.496094 L 113.167969 167.496094 C 117.359375 160.878906 118.292969 158.441406 118.523438 149.734375 C 118.523438 149.386719 117.246094 150.433594 116.3125 151.59375 C 117.011719 147.996094 118.992188 147.296875 120.503906 145.09375 C 121.203125 144.164062 121.785156 142.769531 121.785156 140.914062 C 129.933594 135.457031 132.960938 128.609375 134.707031 121.527344 C 136.105469 116.652344 137.734375 108.644531 139.832031 106.4375 Z M 139.832031 106.4375 "/>
<path style=" stroke:none;fill-rule:nonzero;fill:rgb(0.392157%,0.392157%,0.392157%);fill-opacity:1;" d="M 111.074219 87.75 C 111.074219 87.75 114.21875 87.863281 117.011719 88.792969 C 119.691406 89.722656 119.691406 90.300781 120.738281 91.464844 C 121.785156 92.625 124.347656 94.363281 123.882812 96.105469 C 123.648438 97.035156 123.066406 97.265625 122.25 98.078125 C 121.902344 98.429688 119.339844 101.214844 118.757812 101.5625 C 118.410156 101.792969 117.941406 102.144531 117.59375 102.375 L 115.847656 103.535156 C 114.683594 104.117188 113.867188 104.464844 112.585938 104.347656 C 112.585938 104.347656 109.675781 104.230469 107.8125 102.257812 C 107.8125 102.257812 107.582031 101.328125 108.046875 100.867188 C 108.046875 100.867188 105.601562 98.777344 104.902344 97.382812 C 104.203125 95.992188 104.203125 94.019531 104.671875 92.972656 C 104.902344 91.925781 109.441406 89.023438 111.074219 87.75 Z M 113.984375 200.695312 L 113.636719 203.597656 C 113.636719 203.597656 112.585938 204.875 104.785156 204.757812 C 96.871094 204.644531 94.773438 202.207031 94.074219 200.929688 L 93.609375 197.910156 C 93.609375 197.910156 95.125 195.703125 95.472656 195.703125 C 98.035156 195.9375 106.765625 199.417969 112.820312 200.347656 C 113.402344 200.347656 113.519531 200.578125 113.984375 200.695312 Z M 130.867188 194.777344 C 130.867188 196.050781 130.75 196.050781 130.75 197.328125 C 132.148438 198.375 135.640625 198.953125 142.277344 198.839844 C 151.941406 198.605469 160.90625 201.742188 171.847656 199.882812 L 171.964844 197.792969 L 170.917969 197.679688 L 132.148438 194.542969 Z M 130.867188 194.777344 "/>
<path style=" stroke:none;fill-rule:nonzero;fill:rgb(0.392157%,0.392157%,0.392157%);fill-opacity:1;" d="M 139.367188 198.839844 L 142.277344 198.839844 C 148.5625 198.605469 154.503906 200 160.90625 200.347656 C 164.28125 200.230469 168.472656 199.417969 168.125 196.980469 L 135.058594 194.195312 C 133.078125 196.402344 134.59375 198.257812 139.367188 198.839844 Z M 101.410156 149.96875 C 102.457031 150.664062 109.558594 154.84375 121.085938 154.261719 C 120.851562 156.46875 120.96875 160.765625 115.847656 168.308594 C 113.285156 172.023438 111.074219 178.523438 110.609375 186.765625 C 110.722656 188.625 111.773438 190.25 110.375 192.6875 C 110.839844 194.195312 112.703125 197.214844 113.636719 199.070312 C 114.566406 200.929688 115.03125 203.019531 108.859375 203.132812 C 102.574219 203.25 92.445312 202.554688 93.839844 197.679688 C 94.539062 195.125 96.519531 192.453125 96.753906 191.410156 C 96.984375 190.363281 96.984375 187.230469 98.964844 185.140625 C 100.710938 179.335938 100.128906 173.765625 99.78125 168.542969 C 99.199219 163.085938 99.082031 154.378906 101.410156 149.96875 Z M 112.238281 55.363281 C 120.503906 44.332031 113.519531 35.511719 100.246094 38.179688 C 94.890625 39.226562 89.535156 42.941406 89.183594 49.671875 C 87.4375 49.90625 83.480469 50.136719 81.5 57.335938 C 79.988281 62.90625 79.171875 63.953125 76.492188 66.738281 C 74.746094 68.710938 76.609375 72.773438 77.890625 75.675781 C 82.199219 85.660156 95.472656 86.585938 104.4375 94.132812 C 107.464844 93.320312 110.609375 89.953125 111.539062 87.75 C 103.972656 78.808594 105.601562 75.328125 102.574219 70.683594 C 105.835938 69.523438 113.285156 64.996094 112.238281 55.363281 Z M 112.238281 55.363281 "/>
<path style=" stroke:none;fill-rule:nonzero;fill:rgb(94.117647%,93.72549%,93.72549%);fill-opacity:1;" d="M 110.609375 54.664062 C 111.074219 53.96875 111.886719 52.460938 112.238281 51.878906 C 112.355469 51.761719 113.636719 53.96875 113.75 53.851562 C 116.894531 48.746094 117.710938 41.316406 114.101562 40.617188 C 113.285156 40.503906 111.773438 40.15625 110.492188 39.691406 C 108.164062 38.878906 106.066406 38.878906 102.339844 39.574219 C 97.21875 40.503906 92.09375 44.21875 92.09375 49.558594 C 92.09375 49.90625 95.703125 50.949219 96.753906 55.246094 C 95.003906 52.808594 91.976562 50.136719 88.371094 52.460938 C 84.527344 54.898438 86.507812 60.46875 81.382812 66.273438 C 79.636719 68.246094 79.871094 70.566406 81.730469 75.210938 C 84.757812 82.523438 99.082031 86.472656 106.882812 93.4375 C 108.746094 92.621094 110.023438 90.765625 110.957031 89.371094 C 105.71875 83.917969 103.621094 78.808594 102.109375 75.09375 C 100.246094 70.800781 98.148438 68.363281 94.074219 65.109375 C 96.171875 65.921875 97.800781 66.738281 98.730469 67.433594 C 99.777344 68.128906 101.292969 68.246094 102.691406 67.78125 C 107.695312 66.042969 110.375 59.074219 110.609375 54.664062 Z M 110.609375 54.664062 "/>
<path style=" stroke:none;fill-rule:nonzero;fill:rgb(0.392157%,0.392157%,0.392157%);fill-opacity:1;" d="M 161.253906 56.523438 C 160.90625 60.933594 157.644531 58.726562 155.898438 57.914062 C 152.40625 56.40625 148.914062 55.363281 144.839844 55.363281 C 140.761719 55.363281 135.523438 55.710938 130.984375 56.871094 C 124.695312 58.613281 122.832031 58.496094 120.039062 57.101562 C 117.246094 55.59375 112.355469 51.878906 112.355469 51.878906 C 112.355469 51.878906 112.238281 53.039062 113.402344 54.550781 C 114.914062 56.40625 118.292969 58.726562 122.832031 60.238281 C 125.046875 60.933594 126.792969 60.46875 128.773438 60.003906 C 139.132812 57.449219 150.078125 56.988281 159.277344 62.558594 C 159.742188 62.789062 161.371094 62.09375 162.070312 61.050781 C 163 59.539062 161.253906 56.523438 161.253906 56.523438 Z M 161.253906 56.523438 "/>
<path style=" stroke:none;fill-rule:nonzero;fill:rgb(3.921569%,9.411765%,14.509804%);fill-opacity:1;" d="M 108.28125 100.75 C 109.210938 101.328125 110.375 101.679688 111.65625 102.722656 C 111.65625 102.722656 110.609375 102.722656 110.140625 102.257812 C 109.558594 101.910156 108.394531 100.867188 108.28125 100.75 Z M 108.28125 100.75 "/>
<path style=" stroke:none;fill-rule:nonzero;fill:rgb(94.117647%,93.72549%,93.72549%);fill-opacity:1;" d="M 141.925781 8.695312 C 141.578125 7.652344 139.015625 5.792969 133.078125 5.792969 C 126.675781 5.792969 124.8125 7.769531 124.695312 8.8125 C 124.695312 9.160156 124.230469 12.875 124.113281 14.382812 C 124.113281 14.382812 124.113281 16.242188 124.230469 19.027344 C 124.347656 20.886719 124.8125 21.929688 125.042969 24.367188 C 125.277344 26.921875 125.976562 28.546875 127.257812 30.636719 C 127.839844 30.984375 128.304688 31.332031 128.886719 31.449219 C 131.214844 31.914062 135.289062 32.027344 137.503906 31.449219 C 138.785156 31.101562 140.414062 28.894531 140.761719 26.921875 C 141.226562 24.484375 141.695312 22.742188 141.8125 21.234375 C 142.042969 19.726562 142.160156 16.359375 142.277344 15.429688 C 142.625 12.875 142.042969 8.929688 141.925781 8.695312 Z M 141.925781 8.695312 "/>
<path style=" stroke:none;fill-rule:nonzero;fill:rgb(0.392157%,0.392157%,0.392157%);fill-opacity:1;" d="M 129.703125 152.175781 C 129.703125 152.175781 135.875 154.84375 151.125 152.523438 C 151.125 152.523438 146.816406 174.113281 148.796875 184.910156 C 148.796875 184.910156 150.777344 187.695312 165.445312 193.035156 C 165.445312 193.035156 171.964844 194.660156 171.734375 197.910156 C 171.734375 197.910156 171.964844 198.605469 164.050781 198.375 C 156.132812 198.140625 148.679688 196.75 143.441406 196.75 C 138.203125 196.75 132.613281 196.980469 131.683594 195.472656 C 130.632812 194.078125 131.914062 190.480469 133.429688 188.390625 C 135.058594 186.1875 134.59375 184.558594 134.476562 180.613281 C 134.125 170.28125 126.210938 159.601562 129.703125 152.175781 Z M 129.703125 152.175781 "/>
<path style=" stroke:none;fill-rule:nonzero;fill:rgb(54.117647%,77.647059%,25.098039%);fill-opacity:1;" d="M 128.421875 154.148438 C 127.605469 155.308594 128.539062 159.71875 129.703125 164.015625 C 130.867188 168.308594 133.429688 170.863281 134.011719 177.945312 C 134.59375 184.910156 134.707031 185.835938 132.730469 189.898438 C 130.75 193.960938 130.167969 197.675781 137.035156 197.792969 C 143.90625 197.910156 147.632812 197.675781 154.617188 198.722656 C 161.605469 199.765625 164.046875 200.117188 167.890625 199.535156 C 171.734375 198.953125 172.546875 197.675781 170.917969 196.515625 C 169.289062 195.355469 162.535156 194.078125 159.625 191.757812 C 156.828125 189.667969 148.914062 186.183594 148.796875 185.257812 C 148.449219 182.121094 148.332031 170.746094 148.914062 167.03125 C 149.496094 163.316406 150.308594 157.976562 150.542969 156.585938 C 150.777344 155.191406 151.941406 153.796875 149.960938 154.261719 C 147.980469 154.726562 140.53125 155.773438 134.941406 155.421875 C 129.351562 155.074219 128.769531 153.796875 128.421875 154.148438 Z M 128.421875 154.148438 "/>
<use xlink:href="#surface5" mask="url(#mask0)"/>
<path style=" stroke:none;fill-rule:nonzero;fill:rgb(0.392157%,0.392157%,0.392157%);fill-opacity:1;" d="M 120.621094 83.105469 C 120.621094 83.917969 129.703125 88.445312 134.707031 89.375 C 139.714844 90.300781 150.195312 89.375 151.824219 89.027344 L 151.589844 90.652344 C 151.589844 90.652344 139.132812 92.507812 129.585938 89.953125 C 120.039062 87.402344 121.085938 86.820312 121.085938 86.820312 Z M 120.621094 83.105469 "/>
<path style=" stroke:none;fill-rule:nonzero;fill:rgb(94.117647%,93.72549%,93.72549%);fill-opacity:1;" d="M 101.175781 182.121094 C 102.574219 182.820312 107.582031 184.097656 110.839844 183.398438 C 111.304688 183.285156 110.839844 175.390625 112.121094 171.792969 C 113.984375 166.800781 117.011719 162.738281 118.40625 153.914062 C 113.519531 153.449219 107.929688 152.175781 105.019531 151.246094 C 101.292969 162.621094 102.574219 172.371094 101.175781 182.121094 Z M 108.976562 189.4375 C 109.792969 189.667969 110.375 190.597656 110.609375 190.015625 C 111.074219 188.972656 109.792969 187 109.675781 185.605469 L 109.675781 185.488281 C 108.628906 184.5625 101.527344 184.445312 101.992188 184.910156 C 101.175781 186.417969 99.898438 186.1875 99.429688 189.203125 C 99.199219 190.714844 101.0625 189.4375 102.808594 189.320312 C 99.664062 191.410156 96.054688 194.078125 95.472656 196.402344 C 94.773438 199.652344 95.9375 200.582031 99.429688 202.320312 C 102.457031 203.019531 106.066406 203.132812 108.863281 203.019531 C 112.003906 202.4375 112.589844 200.929688 111.65625 198.839844 C 110.257812 195.703125 109.328125 191.640625 108.976562 189.4375 Z M 108.976562 189.4375 "/>
<path style=" stroke:none;fill-rule:nonzero;fill:rgb(0.392157%,0.392157%,0.392157%);fill-opacity:1;" d="M 110.257812 38.644531 C 114.101562 40.851562 119.457031 40.269531 121.4375 40.15625 C 121.902344 40.15625 126.558594 39.34375 126.792969 39.457031 C 127.257812 39.574219 127.257812 39.921875 127.257812 39.921875 C 127.257812 39.921875 125.511719 40.851562 121.550781 41.082031 C 117.828125 41.316406 113.402344 41.082031 110.957031 39.921875 C 108.046875 38.644531 110.257812 38.644531 110.257812 38.644531 Z M 149.84375 40.851562 C 150.542969 41.316406 155.085938 43.058594 157.0625 45.144531 C 158.808594 47.003906 157.878906 46.886719 157.527344 46.421875 C 157.0625 45.84375 153.453125 43.40625 152.058594 42.824219 C 150.660156 42.246094 148.914062 41.199219 148.914062 40.96875 C 148.914062 40.734375 149.84375 40.851562 149.84375 40.851562 Z M 149.84375 40.851562 "/>
<path style=" stroke:none;fill-rule:nonzero;fill:rgb(94.117647%,93.72549%,93.72549%);fill-opacity:1;" d="M 109.675781 89.023438 C 113.050781 88.792969 116.546875 89.605469 118.757812 91.925781 C 119.921875 93.089844 121.785156 94.363281 121.550781 95.527344 C 121.550781 95.875 120.851562 96.800781 120.273438 97.5 C 119.921875 97.964844 118.875 99.007812 118.523438 99.355469 C 118.058594 99.703125 116.429688 100.980469 116.082031 101.214844 C 115.730469 101.445312 115.265625 102.027344 114.914062 102.144531 C 113.753906 102.722656 112.472656 102.257812 111.308594 101.679688 C 110.144531 101.097656 111.539062 100.980469 110.257812 100.054688 C 107.117188 97.847656 105.367188 96.339844 106.648438 92.042969 C 106.765625 91.230469 108.046875 90.300781 109.675781 89.023438 Z M 109.675781 89.023438 "/>
<use xlink:href="#surface8" mask="url(#mask1)"/>
<path style=" stroke:none;fill-rule:nonzero;fill:rgb(0.392157%,0.392157%,0.392157%);fill-opacity:1;" d="M 25.03125 93.785156 C 31.667969 89.023438 66.015625 70.800781 74.28125 68.246094 C 82.546875 65.578125 79.988281 62.441406 79.988281 62.441406 C 79.988281 62.441406 46.453125 76.835938 26.429688 89.257812 "/>
<use xlink:href="#surface11" mask="url(#mask2)"/>
<path style="fill-rule:nonzero;fill:rgb(54.117647%,77.647059%,25.098039%);fill-opacity:1;stroke-width:1.586;stroke-linecap:butt;stroke-linejoin:round;stroke:rgb(0.392157%,0.392157%,0.392157%);stroke-opacity:1;stroke-miterlimit:10;" d="M 215.196303 58.817942 C 220.492473 62.279332 233.72948 65.535096 237.399214 66.151977 C 241.062113 66.960777 246.973322 62.279332 249.823003 61.059278 C 252.877697 59.633596 258.173866 58.817942 264.283254 64.315041 C 264.898293 64.925069 262.854997 67.577659 262.854997 67.577659 C 262.656818 67.372032 261.433573 67.372032 259.800303 66.556377 C 258.173866 65.740723 256.745609 65.130696 254.305954 65.336323 C 244.116807 66.556377 242.49037 70.017768 233.524467 67.982059 C 224.565398 65.94635 222.323923 64.315041 213.563033 64.719441 " transform="matrix(0.57161,0,0,0.569903,1.222102,2.920895)"/>
<path style=" stroke:none;fill-rule:nonzero;fill:rgb(54.117647%,77.647059%,25.098039%);fill-opacity:1;" d="M 123.183594 36.789062 C 127.023438 38.414062 134.476562 40.15625 136.570312 40.621094 C 138.667969 41.082031 142.042969 38.992188 143.671875 37.949219 C 146.585938 36.09375 150.308594 37.601562 152.058594 39.574219 C 153.21875 40.851562 153.6875 41.664062 153.6875 42.011719 C 153.6875 42.476562 152.289062 42.011719 152.289062 42.011719 C 151.476562 41.664062 150.542969 41.546875 149.84375 41.082031 C 148.914062 40.621094 147.980469 39.921875 146.585938 40.039062 C 140.761719 40.734375 139.597656 42.707031 134.59375 41.546875 C 129.585938 40.386719 128.304688 39.34375 122.949219 39.691406 "/>
<path style=" stroke:none;fill-rule:nonzero;fill:rgb(0.392157%,0.392157%,0.392157%);fill-opacity:1;" d="M 105.136719 145.207031 C 104.902344 144.976562 105.367188 144.746094 105.136719 144.746094 C 103.621094 144.746094 101.527344 143.582031 100.363281 141.957031 C 95.355469 134.761719 88.019531 130.003906 74.746094 130.351562 C 54.835938 130.816406 46.921875 122.6875 45.40625 107.132812 C 44.59375 98.660156 42.261719 90.417969 37.488281 85.773438 L 34.695312 87.515625 C 40.050781 92.160156 41.796875 99.707031 42.960938 110.035156 C 44.824219 125.589844 57.398438 132.789062 72.070312 133.019531 C 87.320312 133.253906 92.792969 136.386719 98.5 144.046875 C 100.359375 146.484375 102.457031 147.300781 104.085938 147.648438 Z M 105.136719 145.207031 "/>
<use xlink:href="#surface14" mask="url(#mask3)"/>
</g>
</svg>
