<?xml version="1.0" encoding="UTF-8"?>
<svg xmlns="http://www.w3.org/2000/svg" xmlns:xlink="http://www.w3.org/1999/xlink" width="180px" height="px" viewBox="0 0 180 180" version="1.1">
<g id="surface1">
<path style=" stroke:none;fill-rule:nonzero;fill:rgb(0%,0%,0%);fill-opacity:1;" d="M 91 179.445312 C 89.488281 179.449219 88.109375 178.589844 87.445312 177.234375 C 86.800781 175.957031 86.9375 174.425781 87.800781 173.28125 L 129.828125 115.417969 L 56.238281 145.476562 C 55.742188 145.691406 55.203125 145.804688 54.660156 145.8125 C 52.910156 145.800781 51.375 144.644531 50.886719 142.96875 C 50.386719 141.324219 51.050781 139.550781 52.507812 138.640625 L 117.226562 100.425781 L 3.269531 93.871094 C 1.378906 93.539062 0 91.898438 0 89.980469 C 0 88.058594 1.378906 86.417969 3.269531 86.089844 L 117.285156 79.550781 L 52.546875 41.335938 C 51.089844 40.425781 50.425781 38.652344 50.925781 37.011719 C 51.414062 35.339844 52.9375 34.183594 54.679688 34.167969 C 55.226562 34.164062 55.765625 34.285156 56.257812 34.523438 L 129.867188 64.621094 L 87.839844 6.773438 C 86.976562 5.632812 86.839844 4.101562 87.484375 2.824219 C 88.128906 1.449219 89.5 0.566406 91.019531 0.550781 C 92.054688 0.558594 93.046875 0.988281 93.761719 1.738281 L 177.523438 85.476562 C 180 87.960938 180 91.980469 177.523438 94.460938 L 93.722656 178.300781 C 93.007812 179.03125 92.023438 179.445312 91 179.445312 Z M 91 179.445312 "/>
</g>
</svg>
